<svg width="50" height="50" viewBox="0 0 50 50" fill="none" xmlns="http://www.w3.org/2000/svg">
<g clip-path="url(#clip0_103_931)">
<path d="M16.65 9.375H33.35L36.9541 6.49167C38.1812 5.5125 38.6395 3.92292 38.1208 2.43958C37.602 0.95625 36.2541 0 34.6875 0H15.3125C13.7458 0 12.3979 0.958333 11.8791 2.43958C11.3604 3.92083 11.8187 5.5125 13.0437 6.48958L16.65 9.375Z" fill="#B76C28"/>
<path d="M33.6354 12.5H16.3646C10.675 18.0854 6.25 27.8854 6.25 35.9375C6.25 42.9354 9.95417 50 18.2292 50H32.2917C39.3604 50 43.75 44.6104 43.75 35.9375C43.75 27.8854 39.325 18.0854 33.6354 12.5ZM24.2083 29.6875H25.7917C28.2271 29.6875 30.2083 31.6688 30.2083 34.1042C30.2083 36.2938 28.6292 38.0958 26.5625 38.4625V40.1021C26.5625 40.9646 25.8625 41.6646 25 41.6646C24.1375 41.6646 23.4375 40.9646 23.4375 40.1021V38.5417H21.3542C20.4917 38.5417 19.7917 37.8417 19.7917 36.9792C19.7917 36.1167 20.4917 35.4167 21.3542 35.4167H25.7917C26.5042 35.4167 27.0833 34.8375 27.0833 34.125C27.0833 33.3917 26.5042 32.8125 25.7917 32.8125H24.2083C21.7729 32.8125 19.7917 30.8312 19.7917 28.3958C19.7917 26.2063 21.3708 24.4042 23.4375 24.0375V22.3958C23.4375 21.5333 24.1375 20.8333 25 20.8333C25.8625 20.8333 26.5625 21.5333 26.5625 22.3958V23.9583H28.6458C29.5083 23.9583 30.2083 24.6583 30.2083 25.5208C30.2083 26.3833 29.5083 27.0833 28.6458 27.0833H24.2083C23.4958 27.0833 22.9167 27.6625 22.9167 28.375C22.9167 29.1083 23.4958 29.6875 24.2083 29.6875Z" fill="#B76C28"/>
</g>
<defs>
<clipPath id="clip0_103_931">
<rect width="50" height="50" fill="white"/>
</clipPath>
</defs>
</svg>
