<svg width="43" height="44" viewBox="0 0 43 44" fill="none" xmlns="http://www.w3.org/2000/svg">
<path d="M28.7721 1.84375H1.5V30.7326H28.7721V1.84375Z" stroke="#B76C28" stroke-width="3" stroke-linecap="round" stroke-linejoin="round"/>
<path d="M28.7731 12.9546H36.0456L41.5 19.6213V30.7324H28.7731V12.9546Z" stroke="#B76C28" stroke-width="3" stroke-linecap="round" stroke-linejoin="round"/>
<path d="M9.68035 41.8435C12.1907 41.8435 14.2257 39.3562 14.2257 36.288C14.2257 33.2197 12.1907 30.7324 9.68035 30.7324C7.17003 30.7324 5.13501 33.2197 5.13501 36.288C5.13501 39.3562 7.17003 41.8435 9.68035 41.8435Z" stroke="#B76C28" stroke-width="3" stroke-linecap="round" stroke-linejoin="round"/>
<path d="M33.3184 41.8435C35.8287 41.8435 37.8638 39.3562 37.8638 36.288C37.8638 33.2197 35.8287 30.7324 33.3184 30.7324C30.8081 30.7324 28.7731 33.2197 28.7731 36.288C28.7731 39.3562 30.8081 41.8435 33.3184 41.8435Z" stroke="#B76C28" stroke-width="3" stroke-linecap="round" stroke-linejoin="round"/>
</svg>
