<svg width="23" height="23" viewBox="0 0 23 23" fill="none" xmlns="http://www.w3.org/2000/svg">
<path d="M11.9342 22.4345C9.01695 22.4371 6.21839 21.2847 4.15556 19.2315C2.09273 17.1782 0.935002 14.3926 0.937627 11.4889V11.27C1.02757 6.8832 3.73934 2.97336 7.8285 1.3347C11.9177 -0.303957 16.5947 0.644946 19.7132 3.74595C22.861 6.87648 23.8031 11.5866 22.0999 15.6784C20.3967 19.7702 16.384 22.4371 11.9342 22.4345ZM11.9342 13.0322L14.7824 15.8671L16.3329 14.3238L13.4848 11.4889L16.3329 8.65396L14.7824 7.11063L11.9342 9.94554L9.08612 7.11063L7.5356 8.65396L10.3837 11.4889L7.5356 14.3238L9.08612 15.8671L11.9342 13.0333V13.0322Z" fill="black" fill-opacity="0.5"/>
</svg>
