<svg width="20" height="15" viewBox="0 0 20 15" fill="none" xmlns="http://www.w3.org/2000/svg">
<path d="M19.0473 5.97872C18.5443 4.902 17.8675 3.9747 17.0172 3.19627C16.1669 2.41797 15.1535 1.79863 13.9771 1.33818C12.8006 0.877736 11.5679 0.647461 10.278 0.647461C8.98821 0.647461 7.75525 0.87777 6.57898 1.33818C5.40271 1.7988 4.38939 2.41797 3.53907 3.19627C2.68856 3.9747 2.01199 4.902 1.50879 5.97872C1.00571 7.05544 0.75415 8.18382 0.75415 9.36426C0.75415 11.0634 1.2537 12.6299 2.25286 14.0632C2.38741 14.2513 2.57877 14.3453 2.82683 14.3453H17.7291C17.9771 14.3453 18.1684 14.2513 18.303 14.0632C19.3022 12.6234 19.8018 11.057 19.8018 9.36426C19.8018 8.18382 19.5503 7.05544 19.0473 5.97872ZM9.31595 2.25762C9.58184 2.01436 9.90239 1.89271 10.278 1.89271C10.6536 1.89271 10.9741 2.01439 11.2399 2.25762C11.5057 2.50074 11.6387 2.79426 11.6387 3.138C11.6387 3.48174 11.5057 3.77516 11.2399 4.01838C10.9741 4.2616 10.6536 4.38328 10.278 4.38328C9.90239 4.38328 9.58169 4.2616 9.31595 4.01838C9.05031 3.77512 8.91733 3.48174 8.91733 3.138C8.91733 2.79426 9.05017 2.50077 9.31595 2.25762ZM4.43723 10.2447C4.17149 10.4878 3.85079 10.6098 3.47522 10.6098C3.09976 10.6098 2.77907 10.4878 2.51332 10.2447C2.24754 10.0017 2.11478 9.70804 2.11478 9.36426C2.11478 9.02051 2.24754 8.72713 2.51332 8.48388C2.7791 8.24062 3.09976 8.11901 3.47522 8.11901C3.85079 8.11901 4.17164 8.24062 4.43723 8.48388C4.70287 8.72713 4.83585 9.02051 4.83585 9.36426C4.83585 9.70804 4.70287 10.0014 4.43723 10.2447ZM6.47812 5.88631C6.21223 6.1295 5.89168 6.25121 5.51607 6.25121C5.14046 6.25121 4.81981 6.12936 4.55402 5.88631C4.28839 5.64319 4.15544 5.34967 4.15544 5.00593C4.15544 4.66218 4.28824 4.36877 4.55402 4.12555C4.81992 3.88229 5.14046 3.76064 5.51607 3.76064C5.89165 3.76064 6.21234 3.88232 6.47812 4.12555C6.74376 4.3688 6.8767 4.66218 6.8767 5.00593C6.8767 5.34957 6.74372 5.64305 6.47812 5.88631ZM12.4994 5.96904L11.4257 9.68527C11.7803 9.90567 12.0354 10.2007 12.1913 10.5705C12.347 10.9402 12.3684 11.3196 12.255 11.7088C12.1133 12.2082 11.7979 12.5876 11.3089 12.8469C10.8199 13.1064 10.3028 13.1714 9.75697 13.0416C9.21144 12.9119 8.79678 12.6233 8.51343 12.1757C8.23007 11.7281 8.15922 11.2548 8.30092 10.7552C8.41425 10.3663 8.63748 10.0468 8.97057 9.79731C9.30355 9.54744 9.68262 9.40654 10.1078 9.37404L11.1814 5.65774C11.2309 5.48914 11.3372 5.36092 11.5001 5.27334C11.6632 5.18594 11.8331 5.16485 12.0104 5.2102C12.1878 5.25566 12.3241 5.35124 12.4196 5.49711C12.5155 5.64319 12.542 5.80044 12.4994 5.96904ZM14.0779 5.88631C13.8122 5.64319 13.6792 5.34967 13.6792 5.00593C13.6792 4.66218 13.8122 4.36877 14.0779 4.12555C14.3437 3.88232 14.6643 3.76064 15.0399 3.76064C15.4155 3.76064 15.736 3.88232 16.0018 4.12555C16.2676 4.36877 16.4006 4.66218 16.4006 5.00593C16.4006 5.34957 16.2676 5.64309 16.0018 5.88631C15.736 6.1295 15.4155 6.25121 15.0399 6.25121C14.6643 6.25121 14.3437 6.1295 14.0779 5.88631ZM18.0426 10.2447C17.7768 10.4878 17.4563 10.6098 17.0807 10.6098C16.7051 10.6098 16.3845 10.4878 16.1188 10.2447C15.853 10.0017 15.7201 9.70804 15.7201 9.36426C15.7201 9.02051 15.853 8.72713 16.1188 8.48388C16.3845 8.24062 16.7051 8.11901 17.0807 8.11901C17.4563 8.11901 17.7768 8.24062 18.0426 8.48388C18.3084 8.72713 18.4411 9.02051 18.4411 9.36426C18.4411 9.70804 18.3083 10.0014 18.0426 10.2447Z" fill="white" fill-opacity="0.8"/>
</svg>
