<svg width="17" height="17" viewBox="0 0 17 17" fill="none" xmlns="http://www.w3.org/2000/svg">
<g clip-path="url(#clip0_36_68)">
<path d="M12.8817 8.47888C12.5128 8.47888 12.2146 8.77759 12.2146 9.14551V14.4789C12.2146 14.8462 11.9157 15.1455 11.5475 15.1455H2.20717C1.83886 15.1455 1.54005 14.8462 1.54005 14.4789V5.14551C1.54005 4.7782 1.83886 4.47888 2.20717 4.47888H7.54451C7.91344 4.47888 8.21163 4.18018 8.21163 3.81226C8.21163 3.44421 7.91344 3.14551 7.54451 3.14551H2.20717C1.10369 3.14551 0.205688 4.04285 0.205688 5.14551V14.4789C0.205688 15.5815 1.10369 16.4789 2.20717 16.4789H11.5475C12.651 16.4789 13.549 15.5815 13.549 14.4789V9.14551C13.549 8.77686 13.2507 8.47888 12.8817 8.47888Z" fill="black" fill-opacity="0.8"/>
<path d="M6.46083 7.87183C6.41416 7.91846 6.38277 7.97778 6.36945 8.04175L5.89779 10.3992C5.8758 10.5084 5.91049 10.6211 5.98917 10.7004C6.05257 10.7638 6.13796 10.7977 6.22543 10.7977C6.24668 10.7977 6.26879 10.7958 6.29078 10.7911L8.64922 10.3198C8.71458 10.3064 8.77395 10.2751 8.82 10.2284L14.0986 4.95374L11.7401 2.59717L6.46083 7.87183Z" fill="black" fill-opacity="0.8"/>
<path d="M15.7292 0.96701C15.0788 0.316986 14.0206 0.316986 13.3707 0.96701L12.4474 1.88962L14.8059 4.24631L15.7292 3.32358C16.0441 3.00961 16.2176 2.59091 16.2176 2.1456C16.2176 1.70029 16.0441 1.28159 15.7292 0.96701Z" fill="black" fill-opacity="0.8"/>
</g>
<defs>
<clipPath id="clip0_36_68">
<rect width="16.0119" height="16" fill="white" transform="translate(0.205688 0.448242)"/>
</clipPath>
</defs>
</svg>
