<svg width="15" height="15" viewBox="0 0 15 15" fill="none" xmlns="http://www.w3.org/2000/svg">
<path d="M8.65264 6.47859C8.58299 6.40894 8.52774 6.32626 8.49005 6.23526C8.45236 6.14427 8.43296 6.04674 8.43296 5.94824C8.43296 5.84975 8.45236 5.75222 8.49005 5.66122C8.52774 5.57022 8.58299 5.48754 8.65264 5.4179L11.8723 2.19824L12.933 2.19824L12.933 3.2589L9.71333 6.47859C9.64368 6.54823 9.561 6.60348 9.47001 6.64118C9.37901 6.67887 9.28148 6.69827 9.18298 6.69827C9.08449 6.69827 8.98696 6.67887 8.89596 6.64118C8.80497 6.60348 8.72228 6.54823 8.65264 6.47859ZM2.43298 12.6982L3.49364 12.6982L6.71333 9.47859C6.85398 9.33793 6.933 9.14716 6.933 8.94824C6.933 8.74932 6.85398 8.55855 6.71333 8.4179C6.57267 8.27724 6.3819 8.19822 6.18298 8.19822C5.98407 8.19822 5.7933 8.27724 5.65264 8.4179L2.43298 11.6376L2.43298 12.6982ZM10.183 1.69824L13.433 1.69824L13.433 4.94824C13.433 5.14715 13.512 5.33792 13.6527 5.47857C13.7933 5.61922 13.9841 5.69824 14.183 5.69824C14.3819 5.69824 14.5727 5.61922 14.7133 5.47857C14.854 5.33792 14.933 5.14715 14.933 4.94824L14.933 0.948242C14.933 0.74933 14.854 0.558564 14.7133 0.417912C14.5727 0.27726 14.3819 0.198242 14.183 0.198242L10.183 0.198242C9.98407 0.198242 9.79331 0.27726 9.65265 0.417912C9.512 0.558564 9.43298 0.74933 9.43298 0.948242C9.43298 1.14715 9.512 1.33792 9.65265 1.47857C9.79331 1.61922 9.98407 1.69824 10.183 1.69824ZM1.18298 14.6982L5.18298 14.6982C5.3819 14.6982 5.57266 14.6192 5.71331 14.4786C5.85397 14.3379 5.93298 14.1472 5.93298 13.9482C5.93298 13.7493 5.85397 13.5586 5.71331 13.4179C5.57266 13.2773 5.3819 13.1982 5.18298 13.1982L1.93298 13.1982L1.93298 9.94824C1.93298 9.74933 1.85397 9.55856 1.71331 9.41791C1.57266 9.27726 1.3819 9.19824 1.18298 9.19824C0.984071 9.19824 0.793306 9.27726 0.652654 9.41791C0.512002 9.55856 0.432984 9.74933 0.432984 9.94824L0.432984 13.9482C0.432984 14.1472 0.512001 14.3379 0.652654 14.4786C0.793306 14.6192 0.984071 14.6982 1.18298 14.6982Z" fill="black"/>
</svg>
