<svg width="19" height="11" viewBox="0 0 19 11" fill="none" xmlns="http://www.w3.org/2000/svg">
<path d="M17.7101 4.28918C14.4101 -0.310824 7.91006 -1.41082 3.31006 1.98918C2.11006 2.88918 1.11006 4.08918 0.310059 5.38918C0.510059 5.78918 0.810059 6.18918 1.11006 6.58918C4.41006 11.1892 10.7101 12.1892 15.3101 8.98918C16.2101 8.28918 17.0101 7.58918 17.7101 6.58918C18.0101 6.18918 18.2101 5.78918 18.5101 5.38918C18.2101 4.98918 18.0101 4.58918 17.7101 4.28918ZM9.51006 1.98918C10.0101 1.48918 10.8101 1.48918 11.3101 1.98918C11.8101 2.48918 11.8101 3.28918 11.3101 3.78918C10.8101 4.28918 10.0101 4.28918 9.51006 3.78918C9.01006 3.28918 9.01006 2.48918 9.51006 1.98918ZM9.41006 9.68918C6.31006 9.68918 3.41006 8.08918 1.71006 5.48918C2.91006 3.78918 4.51006 2.58918 6.41006 1.98918C5.71006 2.78918 5.41006 3.68918 5.41006 4.68918C5.41006 6.88918 7.11006 8.78918 9.41006 8.78918C11.6101 8.78918 13.5101 7.08918 13.5101 4.78918V4.68918C13.5101 3.68918 13.1101 2.68918 12.4101 1.98918C14.3101 2.58918 15.9101 3.78918 17.1101 5.48918C15.4101 8.08918 12.5101 9.68918 9.41006 9.68918Z" fill="black"/>
</svg>
