<svg width="13" height="17" viewBox="0 0 13 17" fill="none" xmlns="http://www.w3.org/2000/svg">
<path d="M6.02246 0.688965C2.71246 0.688965 0.0224609 3.37896 0.0224609 6.68896C0.0224609 8.70897 1.19246 10.399 2.55246 11.579C2.98246 11.949 3.73246 12.539 4.40246 13.409C5.14246 14.379 5.81246 15.419 6.02246 16.119C6.23246 15.419 6.90246 14.379 7.64246 13.409C8.31246 12.539 9.06246 11.949 9.49246 11.579C10.8525 10.399 12.0225 8.70897 12.0225 6.68896C12.0225 3.37896 9.33246 0.688965 6.02246 0.688965ZM6.02246 3.24896C6.47421 3.24896 6.92153 3.33794 7.33889 3.51082C7.75625 3.6837 8.13548 3.93708 8.45491 4.25652C8.77434 4.57595 9.02773 4.95517 9.20061 5.37253C9.37348 5.78989 9.46246 6.23722 9.46246 6.68896C9.46246 7.14071 9.37348 7.58804 9.20061 8.0054C9.02773 8.42276 8.77434 8.80198 8.45491 9.12141C8.13548 9.44085 7.75625 9.69423 7.33889 9.86711C6.92153 10.04 6.47421 10.129 6.02246 10.129C5.11012 10.129 4.23514 9.76654 3.59001 9.12141C2.94489 8.47629 2.58246 7.60131 2.58246 6.68896C2.58246 5.77662 2.94489 4.90164 3.59001 4.25652C4.23514 3.61139 5.11012 3.24896 6.02246 3.24896Z" fill="black" fill-opacity="0.6"/>
</svg>
