<svg width="25" height="18" viewBox="0 0 25 18" fill="none" xmlns="http://www.w3.org/2000/svg">
<path d="M23.3538 0.0253906H0.953809C0.512012 0.0253906 0.153809 0.34255 0.153809 0.733724V16.3171C0.153809 16.7082 0.512012 17.0254 0.953809 17.0254H23.3538C23.7956 17.0254 24.1538 16.7082 24.1538 16.3171V0.733724C24.1538 0.34255 23.7956 0.0253906 23.3538 0.0253906ZM21.1937 1.44206L12.1538 8.30092L3.11396 1.44206H21.1937ZM1.75381 15.6087V2.27352L11.6331 9.7712C11.9323 9.99809 12.3737 9.99809 12.6729 9.7712L22.5538 2.27352V15.6087H1.75381Z" fill="white"/>
<path d="M23.3538 0.0253906H0.953809C0.512012 0.0253906 0.153809 0.34255 0.153809 0.733724V16.3171C0.153809 16.7082 0.512012 17.0254 0.953809 17.0254H23.3538C23.7956 17.0254 24.1538 16.7082 24.1538 16.3171V0.733724C24.1538 0.34255 23.7956 0.0253906 23.3538 0.0253906ZM21.1937 1.44206L12.1538 8.30092L3.11396 1.44206H21.1937ZM1.75381 15.6087V2.27352L11.6331 9.7712C11.9323 9.99809 12.3737 9.99809 12.6729 9.7712L22.5538 2.27352V15.6087H1.75381Z" stroke="white"/>
</svg>
