<svg width="25" height="25" viewBox="0 0 25 25" fill="none" xmlns="http://www.w3.org/2000/svg">
<path d="M18.4038 8.02539C18.4038 6.43409 17.7717 4.90797 16.6465 3.78275C15.5212 2.65753 13.9951 2.02539 12.4038 2.02539C10.8125 2.02539 9.28639 2.65753 8.16117 3.78275C7.03595 4.90797 6.40381 6.43409 6.40381 8.02539C6.40381 15.0254 3.40381 17.0254 3.40381 17.0254H21.4038C21.4038 17.0254 18.4038 15.0254 18.4038 8.02539Z" stroke="white" stroke-width="2" stroke-linecap="round" stroke-linejoin="round"/>
<path d="M14.1338 21.0254C13.958 21.3285 13.7056 21.58 13.402 21.7549C13.0984 21.9298 12.7542 22.0218 12.4038 22.0218C12.0534 22.0218 11.7092 21.9298 11.4056 21.7549C11.102 21.58 10.8496 21.3285 10.6738 21.0254" stroke="white" stroke-width="2" stroke-linecap="round" stroke-linejoin="round"/>
</svg>
