<svg width="18" height="19" viewBox="0 0 18 19" fill="none" xmlns="http://www.w3.org/2000/svg">
<path d="M11.0824 5.43218L10.8724 5.23218C10.3524 4.69218 10.4424 4.44218 10.9524 3.93218L13.6724 1.18218C14.4824 0.362177 14.6324 -0.0278226 15.4024 0.702177L15.6124 0.902177L11.0824 5.43218ZM11.6124 5.88218L16.0124 1.48218C16.7124 2.42218 18.3524 4.95218 17.5424 6.82218C16.8124 8.49218 16.4524 8.57218 15.5424 9.82218C13.6924 11.9322 11.3624 14.1922 9.54244 15.8922C8.28244 16.8022 8.23244 17.2222 6.54244 17.8922C4.74244 18.6022 2.14244 17.0022 1.16244 16.3322L5.56244 11.9322L6.74244 13.5522C7.08244 14.0122 7.94244 13.4922 8.54244 12.8922C9.58244 11.8422 11.7224 9.71218 12.5424 8.82218C13.1324 8.23218 13.6624 7.37218 13.2024 7.02218L11.6124 5.88218ZM0.592436 15.9322L0.382436 15.7222C-0.297564 14.9822 0.0924358 14.8222 0.902436 14.0222L3.64244 11.3022C4.15244 10.8122 4.39244 10.7022 4.91244 11.1922L5.11244 11.4022L0.592436 15.9322Z" fill="black" fill-opacity="0.6"/>
</svg>
