<svg width="17" height="17" viewBox="0 0 17 17" fill="none" xmlns="http://www.w3.org/2000/svg">
<path d="M12.9934 16.4482H4.09787C3.1153 16.4482 2.31877 15.7319 2.31877 14.8482V4.44824H0.539673V2.84824H4.09787V2.04824C4.09787 1.16459 4.8944 0.448242 5.87697 0.448242H11.2143C12.1968 0.448242 12.9934 1.16459 12.9934 2.04824V2.84824H16.5516V4.44824H14.7725V14.8482C14.7725 15.7319 13.9759 16.4482 12.9934 16.4482ZM4.09787 4.44824V14.8482H12.9934V4.44824H4.09787ZM5.87697 2.04824V2.84824H11.2143V2.04824H5.87697ZM11.2143 13.2482H9.43517V6.04824H11.2143V13.2482ZM7.65607 13.2482H5.87697V6.04824H7.65607V13.2482Z" fill="#DA1E28"/>
</svg>
