<svg width="21" height="21" viewBox="0 0 21 21" fill="none" xmlns="http://www.w3.org/2000/svg">
<path d="M14.0232 1.75879H1.75073V14.7589H14.0232V1.75879Z" stroke="white" stroke-width="2" stroke-linecap="round" stroke-linejoin="round"/>
<path d="M14.0237 6.75879H17.2964L19.7509 9.75881V14.7588H14.0237V6.75879Z" stroke="white" stroke-width="2" stroke-linecap="round" stroke-linejoin="round"/>
<path d="M5.43189 19.7588C6.56155 19.7588 7.47731 18.6395 7.47731 17.2588C7.47731 15.8781 6.56155 14.7588 5.43189 14.7588C4.30224 14.7588 3.38647 15.8781 3.38647 17.2588C3.38647 18.6395 4.30224 19.7588 5.43189 19.7588Z" stroke="white" stroke-width="2" stroke-linecap="round" stroke-linejoin="round"/>
<path d="M16.0691 19.7588C17.1988 19.7588 18.1145 18.6395 18.1145 17.2588C18.1145 15.8781 17.1988 14.7588 16.0691 14.7588C14.9394 14.7588 14.0237 15.8781 14.0237 17.2588C14.0237 18.6395 14.9394 19.7588 16.0691 19.7588Z" stroke="white" stroke-width="2" stroke-linecap="round" stroke-linejoin="round"/>
</svg>
