<svg width="44" height="31" viewBox="0 0 44 31" fill="none" xmlns="http://www.w3.org/2000/svg">
<path d="M35.2198 12.5488C35.4698 11.7988 35.7198 11.0488 35.7198 10.0488C35.7198 4.54883 31.2198 0.0488281 25.7198 0.0488281C21.9698 0.0488281 18.4698 2.29883 16.9698 5.54883C16.2198 5.29883 15.2198 5.04883 14.4698 5.04883C10.9698 5.04883 8.21985 7.79883 8.21985 11.2988C8.21985 11.7988 8.21985 12.2988 8.46985 12.5488C3.96985 13.2988 0.719849 16.7988 0.719849 21.2988C0.719849 26.0488 4.71985 30.0488 9.46985 30.0488H18.2198V22.5488H10.7198L21.9698 11.2988L33.2198 22.5488H25.7198V30.0488H34.4698C39.2198 30.0488 43.2198 26.0488 43.2198 21.2988C43.2198 16.7988 39.7198 13.0488 35.2198 12.5488Z" fill="black" fill-opacity="0.6"/>
</svg>
