<svg width="18" height="13" viewBox="0 0 18 13" fill="none" xmlns="http://www.w3.org/2000/svg">
<path d="M1.8927 0.432129H15.1427C16.3927 0.432129 17.0227 1.02213 17.0227 2.22213V10.6421C17.0227 11.8321 16.3927 12.4321 15.1427 12.4321H1.8927C0.642695 12.4321 0.0126953 11.8321 0.0126953 10.6421V2.22213C0.0126953 1.02213 0.642695 0.432129 1.8927 0.432129ZM8.5127 9.03213L15.2527 3.50213C15.4927 3.30213 15.6827 2.84213 15.3827 2.43213C15.0927 2.02213 14.5627 2.01213 14.2127 2.26213L8.5127 6.12213L2.8227 2.26213C2.4727 2.01213 1.9427 2.02213 1.6527 2.43213C1.3527 2.84213 1.5427 3.30213 1.7827 3.50213L8.5127 9.03213Z" fill="black" fill-opacity="0.6"/>
</svg>
