<svg width="23" height="19" viewBox="0 0 23 19" fill="none" xmlns="http://www.w3.org/2000/svg">
<path d="M15.6068 1.24414H1.9707V12.7998H15.6068V1.24414Z" stroke="black" stroke-opacity="0.6" stroke-width="2" stroke-linecap="round" stroke-linejoin="round"/>
<path d="M15.6069 5.68848H19.2432L21.9705 8.35516V12.7996H15.6069V5.68848Z" stroke="black" stroke-opacity="0.6" stroke-width="2" stroke-linecap="round" stroke-linejoin="round"/>
<path d="M6.06077 17.2443C7.31594 17.2443 8.33346 16.2493 8.33346 15.022C8.33346 13.7947 7.31594 12.7998 6.06077 12.7998C4.8056 12.7998 3.78809 13.7947 3.78809 15.022C3.78809 16.2493 4.8056 17.2443 6.06077 17.2443Z" stroke="black" stroke-opacity="0.6" stroke-width="2" stroke-linecap="round" stroke-linejoin="round"/>
<path d="M17.8796 17.2443C19.1348 17.2443 20.1523 16.2493 20.1523 15.022C20.1523 13.7947 19.1348 12.7998 17.8796 12.7998C16.6245 12.7998 15.6069 13.7947 15.6069 15.022C15.6069 16.2493 16.6245 17.2443 17.8796 17.2443Z" stroke="black" stroke-opacity="0.6" stroke-width="2" stroke-linecap="round" stroke-linejoin="round"/>
</svg>
