<svg width="19" height="16" viewBox="0 0 19 16" fill="none" xmlns="http://www.w3.org/2000/svg">
<path d="M9.76024 6.21876C11.452 6.21876 12.8235 4.90108 12.8235 3.27564C12.8235 1.6502 11.452 0.33252 9.76024 0.33252C8.06847 0.33252 6.69702 1.6502 6.69702 3.27564C6.69702 4.90108 8.06847 6.21876 9.76024 6.21876Z" fill="white"/>
<path d="M15.9571 6.21875C17.0266 6.21875 17.8936 5.38573 17.8936 4.35816C17.8936 3.33058 17.0266 2.49756 15.9571 2.49756C14.8876 2.49756 14.0206 3.33058 14.0206 4.35816C14.0206 5.38573 14.8876 6.21875 15.9571 6.21875Z" fill="white"/>
<path d="M3.56341 6.21875C4.63292 6.21875 5.49992 5.38573 5.49992 4.35816C5.49992 3.33058 4.63292 2.49756 3.56341 2.49756C2.4939 2.49756 1.62689 3.33058 1.62689 4.35816C1.62689 5.38573 2.4939 6.21875 3.56341 6.21875Z" fill="white"/>
<path d="M5.47139 7.88934C4.70911 7.28928 4.01876 7.36871 3.13736 7.36871C1.81912 7.36871 0.746643 8.39306 0.746643 9.65183V13.3463C0.746643 13.893 1.21105 14.3375 1.78215 14.3375C4.24772 14.3375 3.9507 14.3803 3.9507 14.2353C3.9507 11.6174 3.62797 9.6976 5.47139 7.88934Z" fill="white"/>
<path d="M10.5986 7.38269C9.05909 7.25932 7.72096 7.38411 6.56676 8.29945C4.63528 9.7859 5.00698 11.7873 5.00698 14.2358C5.00698 14.8835 5.55554 15.4204 6.24002 15.4204C13.6721 15.4204 13.9679 15.6508 14.4086 14.7131C14.5531 14.396 14.5135 14.4967 14.5135 11.4631C14.5135 9.05364 12.342 7.38269 10.5986 7.38269Z" fill="white"/>
<path d="M16.3831 7.36912C15.4969 7.36912 14.8103 7.2905 14.0491 7.88975C15.8787 9.68458 15.5698 11.4734 15.5698 14.2357C15.5698 14.3817 15.3232 14.3379 17.7013 14.3379C18.2929 14.3379 18.7738 13.8775 18.7738 13.3115V9.65224C18.7738 8.39346 17.7013 7.36912 16.3831 7.36912Z" fill="white"/>
</svg>
