<svg width="51" height="51" viewBox="0 0 51 51" fill="none" xmlns="http://www.w3.org/2000/svg">
<path fill-rule="evenodd" clip-rule="evenodd" d="M9.80097 33.0612C11.7545 31.1077 14.404 30.0103 17.1667 30.0103H33.8333C36.596 30.0103 39.2455 31.1077 41.199 33.0612C43.1525 35.0147 44.25 37.6642 44.25 40.4269V44.5936C44.25 45.7442 43.3173 46.6769 42.1667 46.6769C41.0161 46.6769 40.0833 45.7442 40.0833 44.5936V40.4269C40.0833 38.7693 39.4249 37.1796 38.2527 36.0075C37.0806 34.8354 35.4909 34.1769 33.8333 34.1769H17.1667C15.5091 34.1769 13.9194 34.8354 12.7472 36.0075C11.5751 37.1796 10.9167 38.7693 10.9167 40.4269V44.5936C10.9167 45.7442 9.98393 46.6769 8.83333 46.6769C7.68274 46.6769 6.75 45.7442 6.75 44.5936V40.4269C6.75 37.6643 7.84747 35.0147 9.80097 33.0612Z" fill="#B76C28"/>
<path fill-rule="evenodd" clip-rule="evenodd" d="M6.75 44.3438C6.75 42.963 7.86929 41.8438 9.25 41.8438H41.75C43.1307 41.8438 44.25 42.963 44.25 44.3438C44.25 45.7245 43.1307 46.8438 41.75 46.8438H9.25C7.86929 46.8438 6.75 45.7245 6.75 44.3438Z" fill="#B76C28"/>
<path fill-rule="evenodd" clip-rule="evenodd" d="M25.4999 9.17692C22.0481 9.17692 19.2499 11.9751 19.2499 15.4269C19.2499 18.8787 22.0481 21.6769 25.4999 21.6769C28.9517 21.6769 31.7499 18.8787 31.7499 15.4269C31.7499 11.9751 28.9517 9.17692 25.4999 9.17692ZM15.0833 15.4269C15.0833 9.67395 19.747 5.01025 25.4999 5.01025C31.2529 5.01025 35.9166 9.67395 35.9166 15.4269C35.9166 21.1799 31.2529 25.8436 25.4999 25.8436C19.747 25.8436 15.0833 21.1799 15.0833 15.4269Z" fill="#B76C28"/>
</svg>
